<?xml version="1.0" standalone="no"?>
<!DOCTYPE svg PUBLIC "-//W3C//DTD SVG 20010904//EN"
 "http://www.w3.org/TR/2001/REC-SVG-20010904/DTD/svg10.dtd">
<svg version="1.0" xmlns="http://www.w3.org/2000/svg" viewBox="0 0 973.000000 1117.000000" preserveAspectRatio="xMidYMid meet">
<metadata>
Created by potrace 1.16, written by Peter Selinger 2001-2019
</metadata>
<g transform="translate(0.000000,1117.000000) scale(0.100000,-0.100000)"
fill="#ffe4c4" stroke="none">
<g>
<path d="M4623 9914 c-11 -17 -48 -42 -98 -65 -44 -20 -89 -44 -100 -52 -17
-13 -21 -13 -31 1 -10 14 -15 14 -45 2 -19 -8 -53 -33 -76 -56 l-41 -42 -12
28 c-14 33 -34 44 -48 27 -5 -7 -31 -54 -56 -105 -26 -51 -51 -90 -56 -87 -27
17 -100 -59 -100 -103 0 -5 -8 -12 -18 -14 -15 -4 -22 -26 -36 -111 -20 -116
-21 -116 -83 -71 -38 29 -63 31 -63 6 0 -10 -19 -49 -42 -88 -39 -64 -43 -75
-46 -151 l-4 -81 -34 20 c-53 31 -68 19 -60 -46 l7 -54 -76 24 c-91 29 -209
42 -220 25 -4 -7 1 -28 10 -47 13 -28 14 -41 5 -69 -6 -18 -17 -39 -25 -45 -8
-7 -17 -28 -21 -47 l-6 -34 -53 6 c-34 5 -55 3 -59 -4 -4 -6 7 -38 23 -71 21
-42 27 -62 18 -65 -90 -32 -112 -43 -115 -59 -4 -21 62 -87 115 -115 l37 -18
-33 -17 c-50 -27 -38 -47 47 -75 l73 -24 -22 -23 c-12 -13 -19 -30 -16 -38 7
-17 77 -31 160 -30 31 0 57 -2 57 -5 0 -3 -15 -20 -32 -38 -26 -27 -30 -37
-22 -51 15 -23 50 -29 164 -31 127 -1 207 18 338 78 122 57 174 64 267 35 l51
-16 -81 -82 c-68 -68 -89 -98 -133 -186 -34 -69 -63 -148 -84 -228 l-31 -123
-46 44 c-59 56 -114 97 -132 97 -11 0 -14 -22 -14 -109 0 -60 -3 -113 -7 -117
-5 -4 -16 0 -26 9 -25 23 -39 21 -53 -5 -16 -29 -25 -10 -33 70 -7 76 -28 120
-62 128 -32 8 -39 1 -36 -41 3 -44 -6 -44 -38 0 -37 51 -80 59 -80 15 0 -16
-18 -7 -92 48 -50 37 -119 93 -154 125 -34 33 -67 56 -72 53 -9 -5 -8 -132 2
-328 3 -64 2 -67 -16 -57 -45 24 -59 -12 -34 -83 16 -43 10 -47 -28 -17 -32
25 -56 19 -56 -16 0 -40 25 -79 80 -125 27 -23 50 -46 50 -50 0 -5 -12 -10
-27 -12 -23 -2 -28 -8 -28 -30 1 -16 -3 -28 -8 -28 -25 0 -133 68 -146 93 -11
18 -23 27 -36 25 -18 -3 -20 -10 -19 -89 1 -47 10 -114 19 -150 29 -109 29
-104 0 -106 -45 -2 -52 -18 -27 -62 12 -21 22 -41 22 -44 0 -3 -19 1 -42 8
-24 7 -79 16 -123 19 -49 5 -100 17 -132 31 -44 20 -54 21 -64 9 -11 -13 7
-57 79 -196 2 -3 -7 -8 -20 -10 -19 -2 -24 -10 -26 -41 -3 -38 28 -107 49
-107 5 0 9 -4 9 -10 0 -5 -26 -17 -57 -26 -74 -21 -88 -33 -69 -59 11 -16 31
-20 110 -25 70 -4 100 -9 112 -22 15 -15 11 -17 -62 -23 -101 -9 -114 -12
-114 -35 0 -22 97 -130 153 -171 l37 -27 -30 -10 c-42 -15 -38 -37 20 -95 28
-28 49 -51 48 -52 -2 -2 -48 -15 -103 -30 -55 -14 -107 -33 -115 -42 -13 -13
-11 -18 20 -44 68 -58 262 -139 332 -139 22 0 22 -4 2 -35 -27 -41 -13 -55 55
-55 33 0 62 -4 65 -8 5 -9 -74 -80 -125 -111 -24 -15 -51 -21 -91 -21 -57 0
-58 0 -58 -29 0 -42 34 -65 137 -90 173 -43 167 -41 148 -55 -42 -31 25 -90
118 -102 45 -6 47 -8 31 -25 -9 -10 -14 -25 -11 -34 9 -23 133 -20 204 5 31
11 58 18 60 16 2 -2 -12 -27 -32 -56 -26 -38 -33 -56 -25 -65 28 -34 93 -19
163 39 33 27 52 36 66 31 11 -3 34 1 51 10 18 9 34 14 37 12 2 -3 -5 -27 -16
-52 -25 -57 -26 -71 -5 -79 51 -20 109 3 198 78 36 31 66 50 66 42 0 -7 7 -19
15 -26 13 -11 21 -8 46 16 17 16 39 44 48 63 l18 34 6 -32 c8 -41 32 -40 57 1
29 48 25 110 -15 227 -43 123 -45 168 -10 210 22 26 115 71 145 71 6 0 10 -13
10 -30 0 -42 41 -145 94 -237 94 -163 128 -263 112 -326 -5 -22 -12 -25 -77
-30 -134 -11 -256 -90 -317 -205 -33 -62 -58 -179 -47 -222 10 -40 -7 -15 -28
42 -46 125 -53 213 -21 265 16 26 49 31 57 9 7 -18 -1 -26 -25 -26 -14 0 -19
-6 -16 -23 5 -33 60 -37 82 -5 21 30 20 60 -4 91 -26 33 -63 41 -100 22 -43
-22 -63 -68 -64 -146 l-1 -65 -47 51 c-63 69 -142 107 -234 113 -42 3 -86 -1
-108 -8 -45 -14 -101 -62 -122 -101 -20 -39 -18 -108 5 -145 56 -91 198 -44
176 58 -7 31 -47 64 -65 53 -12 -8 -14 -45 -1 -45 15 0 22 -32 10 -46 -6 -8
-21 -14 -34 -14 -56 0 -74 85 -30 139 58 68 178 78 284 24 60 -31 109 -88 207
-243 l51 -80 -26 0 c-45 0 -133 -30 -183 -61 -119 -76 -172 -228 -133 -382 9
-38 15 -69 14 -70 -2 -2 -29 -11 -61 -21 -106 -35 -196 -123 -239 -233 -32
-83 -32 -213 0 -306 25 -75 89 -168 143 -209 33 -25 100 -60 141 -72 18 -6 18
-8 -3 -39 -76 -114 -85 -236 -29 -367 31 -72 114 -145 189 -167 l58 -18 -40
-43 c-178 -194 -118 -529 115 -638 29 -13 60 -24 71 -24 14 0 17 -5 12 -23 -4
-12 -11 -48 -15 -80 -21 -162 48 -304 184 -375 45 -24 61 -27 155 -27 97 0
109 2 157 29 29 16 60 37 68 46 15 16 18 15 48 -13 55 -52 131 -81 222 -84 70
-2 87 1 141 26 115 54 182 153 192 280 l4 66 97 0 c83 0 104 4 151 26 68 32
122 84 158 152 24 47 27 62 27 157 0 93 -3 112 -27 162 -37 79 -72 123 -129
160 -27 17 -49 32 -49 33 0 1 5 17 11 35 11 31 13 32 58 27 99 -11 224 26 305
92 34 27 46 31 102 31 35 0 64 -2 64 -5 0 -2 -7 -23 -16 -45 -41 -103 31 -253
86 -180 16 22 17 22 34 -24 19 -48 99 -146 121 -146 7 0 18 7 25 15 11 13 17
10 46 -23 18 -21 51 -47 74 -57 42 -19 42 -19 60 2 l17 22 23 -24 c29 -31 156
-97 178 -93 14 3 17 16 17 78 1 124 16 232 30 220 22 -18 43 0 54 45 6 24 11
53 11 63 0 18 4 19 48 10 34 -7 58 -21 86 -49 48 -49 100 -66 149 -50 46 16
52 34 21 71 l-26 30 29 11 c15 6 42 8 58 4 77 -16 113 -16 144 -1 34 18 39 40
16 66 -14 16 -12 19 26 44 22 15 59 30 82 34 32 6 43 12 45 29 2 13 13 24 29
28 15 3 52 24 84 46 31 22 77 46 101 53 31 9 44 19 46 34 5 31 -31 45 -123 48
-44 2 -91 6 -105 10 -24 5 -110 80 -110 95 0 4 12 9 27 11 38 4 41 33 8 68
l-26 27 22 6 c19 5 21 11 16 42 -3 19 -24 61 -46 93 -26 36 -37 60 -31 66 5 5
37 12 70 14 34 2 64 10 71 18 19 23 -8 72 -57 100 -24 14 -44 27 -44 29 0 6
226 44 250 42 22 -2 25 2 28 37 3 37 0 43 -79 119 l-83 80 23 18 c13 11 32 19
42 19 32 0 33 26 3 80 -26 48 -71 96 -109 118 -15 8 -13 15 19 57 47 61 44 79
-12 83 -23 2 -42 7 -42 11 0 5 21 16 46 26 56 21 84 47 84 78 0 19 14 28 108
63 121 47 137 66 82 101 l-32 20 37 23 c66 41 122 140 79 140 -12 0 -9 9 13
38 16 20 47 68 67 106 23 41 50 75 67 85 42 23 35 51 -19 69 -54 18 -46 29 39
51 64 16 75 26 60 49 -13 21 -115 -2 -171 -38 -45 -29 -49 -30 -105 -19 -32 6
-80 9 -107 7 l-48 -3 0 42 c0 40 -2 43 -37 52 -21 6 -46 11 -55 11 -45 0 -46
9 -11 81 24 48 53 86 94 123 32 29 59 58 59 65 0 14 -66 45 -132 61 -27 7 -48
17 -48 22 0 6 7 36 14 67 8 31 20 94 25 140 13 98 7 112 -43 104 l-34 -5 -4
106 c-3 82 -7 110 -20 123 -16 16 -19 16 -37 -1 -38 -34 -59 -5 -76 108 -5 28
-17 50 -42 72 -34 31 -35 34 -28 83 8 60 0 91 -24 91 -13 0 -32 -34 -72 -127
l-54 -128 -55 -26 -55 -27 -3 40 c-2 21 -9 41 -16 44 -8 3 -72 -31 -144 -75
-71 -45 -134 -81 -139 -81 -5 0 -31 40 -57 90 -26 49 -52 93 -58 96 -12 8 -18
1 -71 -81 -44 -68 -91 -98 -140 -92 -50 7 -77 32 -77 71 0 33 20 70 84 161 37
52 40 61 47 151 5 75 12 103 29 126 24 33 23 64 -3 62 -9 -1 -71 -32 -136 -68
-120 -67 -166 -83 -188 -68 -7 4 -17 30 -22 57 -8 44 -30 75 -53 75 -5 0 -22
-22 -39 -50 -35 -57 -93 -110 -153 -140 l-41 -20 -17 40 c-27 62 -87 67 -114
9 -54 -116 -57 -121 -78 -114 -12 4 -38 9 -58 12 l-38 5 0 -40 c0 -23 -5 -53
-10 -67 l-10 -27 -51 43 c-36 30 -48 46 -43 58 15 36 10 56 -17 59 l-26 3 24
60 c15 36 23 75 21 97 -3 34 -6 37 -30 35 -16 -1 -28 0 -28 3 0 3 21 55 46
117 48 116 57 164 35 191 -20 24 -44 18 -66 -17 -30 -46 -77 -74 -161 -93 -41
-9 -77 -15 -79 -13 -2 2 13 28 32 57 40 59 35 82 -18 82 l-28 0 28 63 c34 73
61 178 61 231 0 37 0 38 33 31 17 -4 57 -18 87 -32 72 -32 92 -28 108 22 16
47 9 115 -18 186 -10 27 -14 49 -9 49 6 0 28 -9 50 -21 83 -42 169 -19 169 46
0 29 4 36 25 41 38 9 71 -3 114 -41 57 -52 111 -44 111 16 0 15 -24 63 -57
113 -63 98 -62 108 17 103 44 -2 45 -1 48 30 2 18 -2 41 -8 52 -9 17 -6 22 18
35 15 8 45 17 65 21 47 9 67 28 67 64 0 28 -26 61 -48 61 -59 0 39 130 137
179 22 12 42 25 46 31 13 20 -16 49 -63 62 -73 21 -70 42 27 184 45 66 81 125
81 132 0 22 -27 24 -62 6 -24 -12 -59 -17 -128 -18 -94 -1 -96 -1 -164 -45
-84 -53 -134 -63 -165 -32 -27 27 -27 76 -1 119 14 22 42 43 87 65 37 18 69
40 71 48 2 11 -23 33 -74 65 -43 27 -82 52 -88 56 -5 3 31 60 82 128 52 70 88
128 85 136 -3 8 -19 14 -39 14 -19 0 -34 2 -34 4 0 2 12 24 26 49 27 50 47 60
202 107 63 19 73 25 70 44 -3 18 -10 21 -63 24 -55 3 -63 6 -90 38 -23 26 -45
39 -94 52 -74 20 -94 41 -67 71 10 11 15 24 12 30 -11 17 -106 41 -162 41
l-52 0 5 39 c5 37 3 41 -21 47 -25 6 -251 -12 -266 -21 -10 -6 -20 20 -20 49
0 37 -31 117 -48 124 -10 3 -25 -6 -41 -24 -39 -45 -90 -80 -150 -103 -30 -11
-56 -19 -58 -17 -2 2 -6 21 -9 42 -11 84 -11 84 -52 84 l-37 0 3 102 c3 124
-23 261 -50 266 -10 2 -24 -8 -35 -24z m34 -198 c3 -74 1 -114 -11 -151 -19
-60 -10 -74 37 -57 18 7 38 12 44 12 7 0 14 -32 18 -76 8 -81 22 -99 53 -71 9
8 48 28 86 43 38 15 88 42 111 60 42 32 43 32 49 11 3 -12 6 -40 6 -62 1 -68
5 -70 117 -57 54 7 117 13 140 15 l42 2 -2 -45 -2 -45 67 3 c36 2 80 1 97 -3
27 -6 31 -11 31 -40 0 -43 41 -78 109 -95 46 -11 101 -54 101 -79 0 -4 -17
-13 -39 -19 -51 -16 -87 -46 -111 -93 -11 -21 -34 -46 -51 -54 -44 -23 -37
-59 11 -63 19 -2 39 -7 43 -12 5 -4 -25 -54 -67 -110 -42 -56 -76 -108 -76
-115 0 -19 28 -44 89 -80 28 -16 51 -33 51 -36 0 -4 -13 -12 -30 -19 -37 -15
-97 -81 -106 -115 -4 -15 -4 -47 -1 -73 4 -36 12 -53 36 -74 44 -39 100 -38
177 4 135 72 127 70 203 62 l69 -6 -50 -73 c-61 -88 -73 -144 -38 -187 12 -16
28 -28 36 -28 25 0 15 -16 -26 -45 -49 -34 -84 -79 -117 -151 -29 -64 -21 -84
33 -84 48 0 42 -14 -11 -28 -89 -24 -153 -83 -115 -107 20 -12 9 -20 -41 -32
-55 -14 -79 -28 -79 -48 0 -7 27 -52 60 -101 61 -89 78 -127 39 -85 -47 50
-132 65 -196 35 -33 -16 -34 -19 -28 -55 7 -38 6 -39 -23 -39 -16 0 -49 9 -73
20 -47 21 -105 26 -129 10 -13 -8 -13 -15 3 -57 42 -109 54 -212 23 -199 -6 2
-42 15 -81 28 -38 13 -77 32 -86 43 -18 20 -19 20 -91 -16 -11 -5 -25 -2 -42
12 -33 26 -47 21 -62 -22 l-12 -34 -11 30 c-19 51 -28 60 -55 57 -28 -3 -31 3
-40 98 -8 81 -34 150 -56 150 -10 0 -46 -30 -80 -67 -62 -68 -62 -68 -56 -33
4 19 19 51 35 70 85 106 78 186 -11 123 -86 -61 -78 -59 -78 -27 0 36 -42 100
-71 109 -13 4 -27 1 -38 -9 -16 -15 -20 -10 -56 65 -46 93 -68 118 -89 100 -7
-6 -16 -31 -18 -55 -3 -26 -21 -69 -44 -107 -21 -35 -48 -87 -60 -117 -18 -45
-23 -51 -29 -33 -4 13 4 43 21 80 14 33 24 67 21 75 -3 8 -22 16 -44 18 l-38
3 111 116 c124 132 168 204 187 306 l12 68 38 -60 c21 -33 76 -134 122 -225
98 -190 177 -301 298 -417 87 -83 222 -181 234 -170 3 4 4 8 2 10 -148 113
-307 269 -378 372 -66 96 -108 170 -91 160 8 -5 38 -23 65 -40 28 -17 104 -60
170 -94 157 -82 246 -142 312 -209 29 -30 56 -52 59 -49 12 12 -111 128 -185
176 -42 27 -128 74 -191 106 -207 103 -248 132 -282 200 -51 100 -109 198
-147 244 -28 35 -32 43 -16 38 11 -3 47 -13 80 -21 75 -19 163 -55 274 -111
85 -43 86 -44 123 -117 57 -110 130 -200 235 -288 87 -73 129 -117 159 -166 7
-11 15 -16 18 -13 14 14 -65 109 -161 191 -108 94 -177 177 -224 270 -16 32
-28 58 -25 58 2 0 59 -27 127 -60 242 -116 465 -170 643 -155 47 4 86 11 86
15 0 5 -53 9 -117 8 -169 0 -338 41 -532 130 l-64 29 84 7 c93 8 159 23 288
66 116 38 193 57 269 66 41 4 60 10 54 16 -18 18 -165 -10 -326 -62 -166 -53
-251 -70 -356 -69 -60 0 -75 5 -190 64 -71 36 -119 65 -110 68 8 3 42 10 75
17 33 7 116 32 185 57 104 36 277 87 365 106 11 3 -2 3 -30 0 -67 -6 -179 -35
-361 -93 -83 -27 -179 -54 -215 -61 -62 -11 -67 -10 -171 25 -59 20 -130 40
-158 43 -27 3 -50 9 -50 12 0 4 19 16 43 28 23 11 69 42 102 68 94 74 223 131
381 170 129 31 343 110 367 134 21 21 -15 11 -102 -28 -94 -42 -144 -58 -300
-95 -57 -14 -133 -39 -169 -56 -35 -16 -66 -30 -68 -30 -5 0 120 147 239 282
174 196 441 376 660 444 31 10 57 23 57 30 0 37 -283 -85 -445 -191 -124 -81
-221 -171 -360 -332 -159 -183 -164 -189 -131 -133 32 54 62 117 86 185 87
245 196 446 285 524 20 17 35 37 33 43 -2 5 -35 -23 -74 -64 -82 -89 -152
-216 -239 -438 -32 -80 -66 -163 -78 -185 -40 -80 -136 -211 -178 -246 -54
-43 -121 -89 -131 -89 -5 0 -8 76 -8 168 0 231 17 288 144 485 76 118 128 226
165 340 30 96 40 151 22 131 -5 -5 -23 -54 -41 -109 -46 -141 -76 -204 -164
-342 -77 -122 -126 -219 -126 -250 0 -9 -2 -14 -4 -12 -13 13 -38 365 -32 454
10 162 68 343 157 487 39 64 31 74 -11 13 -50 -73 -127 -242 -151 -335 -25
-93 -31 -274 -16 -460 7 -86 6 -92 -7 -64 -25 56 -86 244 -127 392 -22 80 -56
179 -75 220 -39 85 -57 94 -21 11 30 -67 54 -142 107 -332 23 -82 63 -207 90
-277 46 -123 48 -134 52 -244 1 -64 2 -116 1 -116 -1 0 -26 37 -56 83 -30 45
-102 136 -161 202 -104 117 -166 215 -166 261 0 13 -4 26 -10 29 -6 4 -10 -8
-10 -28 0 -57 54 -146 165 -272 178 -201 245 -306 245 -382 l0 -44 -65 50
c-66 50 -168 114 -237 145 -45 22 -109 86 -186 191 -65 87 -118 142 -128 132
-4 -4 11 -26 32 -49 22 -24 61 -72 88 -108 27 -36 61 -78 75 -94 22 -25 23
-28 6 -22 -131 48 -491 166 -499 163 -15 -5 138 -66 318 -128 l159 -54 -74
-12 c-41 -7 -110 -26 -154 -42 -44 -16 -93 -33 -110 -37 -25 -6 -27 -8 -9 -11
12 -2 71 13 130 33 93 32 122 37 199 38 77 0 98 -4 146 -26 57 -26 222 -128
217 -133 -2 -2 -24 1 -51 6 -66 12 -131 -3 -228 -51 -105 -53 -210 -80 -314
-80 -45 0 -84 3 -88 6 -3 3 12 29 34 56 43 55 45 61 26 77 -9 7 -24 8 -48 1
-18 -6 -65 -10 -104 -10 -70 0 -70 1 -46 19 40 30 25 53 -47 69 -34 7 -62 17
-62 21 0 4 11 13 25 19 35 16 33 50 -2 58 -59 14 -158 75 -142 87 2 2 27 12
54 22 28 10 53 23 57 29 4 6 -4 30 -18 54 -14 24 -24 45 -22 47 2 2 21 0 43
-5 21 -5 43 -6 48 -3 4 3 5 23 2 45 -6 33 -3 45 21 80 19 28 29 55 31 87 1 25
2 47 2 48 2 5 137 -31 200 -53 61 -22 75 -24 82 -13 5 8 7 21 4 29 -2 8 -7 28
-11 44 l-7 30 35 -22 c65 -41 70 -35 62 76 -7 116 -3 130 73 241 2 2 15 -2 30
-9 54 -25 82 -29 96 -15 8 7 19 51 26 98 10 66 17 86 30 90 12 3 20 18 24 46
7 57 33 96 53 81 24 -21 41 -3 84 87 38 82 42 87 56 69 8 -11 14 -23 14 -28 0
-21 41 -4 59 25 27 45 71 85 71 66 0 -9 6 -24 14 -35 14 -18 17 -17 66 31 62
61 210 138 224 116 4 -7 10 -59 13 -115z m-369 -1708 c-6 -92 -36 -144 -164
-281 -82 -87 -116 -131 -120 -154 -8 -45 1 -63 31 -63 14 0 25 -5 25 -11 0
-17 -20 -49 -31 -49 -6 0 -18 -9 -28 -21 -15 -18 -18 -19 -29 -6 -26 31 44
284 119 428 42 80 162 219 190 219 8 0 10 -19 7 -62z m-1061 -380 c74 -53 153
-130 153 -150 0 -21 41 -6 51 20 10 25 12 26 23 8 6 -10 18 -28 27 -39 l16
-21 26 26 c29 30 31 28 41 -52 8 -54 45 -124 68 -128 12 -2 20 8 28 37 6 23
12 41 14 41 2 0 16 -18 31 -40 19 -28 35 -40 47 -38 17 3 20 14 22 108 2 58 7
113 11 122 10 25 34 9 84 -54 23 -29 48 -62 57 -73 9 -11 23 -35 32 -53 20
-41 54 -41 62 1 l5 27 26 -33 c14 -18 30 -43 34 -56 4 -13 25 -51 47 -85 33
-51 39 -67 35 -98 -3 -25 0 -41 9 -49 23 -19 100 17 161 76 l53 51 63 -52 c34
-28 87 -77 117 -108 32 -33 63 -56 76 -56 27 0 52 28 65 73 l9 35 31 -15 31
-16 -4 -73 c-7 -103 5 -111 80 -50 31 25 76 60 100 77 l42 30 0 -29 c0 -55
-40 -186 -80 -259 -50 -93 -50 -103 -5 -103 19 0 35 -2 35 -3 0 -2 -14 -31
-31 -65 -46 -93 -45 -93 135 -52 49 11 109 31 133 46 l44 25 -16 -38 c-72
-171 -95 -234 -89 -244 4 -7 20 -9 40 -6 26 4 34 2 34 -9 0 -20 -28 -73 -56
-107 -31 -37 -30 -45 6 -61 l30 -12 -38 -37 c-20 -20 -63 -47 -94 -61 -70 -31
-76 -55 -20 -79 20 -9 53 -20 72 -25 29 -7 31 -10 15 -15 -11 -3 -60 -18 -108
-32 -82 -25 -88 -28 -85 -51 2 -17 -5 -31 -21 -43 -34 -26 -23 -44 48 -79 l61
-30 -53 -20 c-29 -11 -91 -26 -138 -33 -46 -6 -87 -17 -91 -23 -4 -6 0 -21 8
-33 19 -29 5 -30 -55 -2 -53 24 -71 19 -71 -18 0 -27 0 -27 -20 -8 -10 11 -41
51 -67 89 -64 93 -109 128 -171 134 -34 3 -59 -1 -81 -13 -42 -21 -48 -14 -23
27 42 68 118 125 269 202 51 27 139 79 196 116 112 74 271 219 249 227 -7 3
-39 -19 -70 -49 -104 -98 -259 -206 -392 -273 l-55 -27 94 92 c51 52 114 121
139 154 47 64 112 190 112 216 -1 8 -14 -13 -29 -46 -16 -34 -47 -89 -70 -123
-55 -81 -270 -302 -347 -357 -69 -49 -106 -93 -132 -155 l-18 -42 -24 39 c-18
28 -26 57 -28 106 l-4 68 73 73 c44 43 107 92 154 119 44 25 98 62 120 81 44
38 112 127 97 127 -5 0 -17 -11 -25 -23 -35 -53 -114 -120 -195 -164 -54 -30
-113 -73 -155 -114 l-68 -66 7 41 c10 60 42 163 70 223 27 57 66 93 297 277
138 110 238 212 273 279 23 43 0 32 -31 -15 -48 -73 -134 -156 -285 -276 -80
-63 -160 -129 -179 -146 -40 -37 -43 -45 46 134 93 187 134 309 139 415 l4 80
-14 -77 c-8 -42 -24 -107 -36 -145 -24 -73 -160 -366 -167 -359 -3 2 7 62 21
133 37 184 48 296 41 389 -11 136 -20 110 -21 -59 0 -147 -4 -180 -38 -346
-26 -129 -49 -212 -76 -275 -44 -104 -66 -183 -76 -275 l-7 -64 -30 64 c-25
54 -30 75 -28 134 2 114 20 216 62 371 45 164 59 256 50 329 -6 44 -8 37 -13
-55 -5 -78 -15 -136 -42 -227 -46 -155 -65 -247 -74 -348 l-7 -80 -80 185 -80
185 1 100 c0 68 9 143 29 235 35 172 41 364 12 448 -10 28 -23 52 -28 52 -12
0 -12 -10 7 -77 22 -82 19 -235 -6 -368 -17 -88 -33 -177 -50 -285 0 -3 -24
54 -54 125 -71 176 -98 227 -208 390 -51 77 -106 170 -123 207 -16 37 -36 68
-42 68 -17 0 -17 1 11 -73 25 -68 57 -122 153 -265 35 -51 76 -119 93 -152 29
-57 130 -297 130 -308 0 -3 -26 19 -57 49 -32 30 -127 108 -211 173 -84 66
-184 153 -222 194 -39 41 -70 69 -70 63 0 -24 145 -162 300 -286 91 -72 193
-161 226 -198 57 -62 69 -84 152 -280 50 -116 113 -263 141 -324 l50 -113
-112 102 c-146 133 -213 181 -322 234 -102 49 -188 120 -341 282 -136 144
-254 224 -328 221 -13 0 -5 -5 19 -13 88 -28 134 -63 325 -250 108 -105 196
-192 195 -193 -1 -4 -350 87 -413 108 -158 51 -269 110 -380 199 -59 48 -82
59 -82 42 0 -15 106 -111 164 -147 120 -76 206 -107 511 -185 255 -65 364
-106 458 -173 90 -64 101 -80 40 -57 -114 43 -196 52 -548 61 -300 7 -391 14
-457 35 -10 3 -18 1 -18 -5 0 -6 17 -15 38 -20 90 -24 197 -33 502 -41 299 -7
333 -10 421 -33 53 -14 114 -34 135 -45 41 -21 242 -207 234 -216 -3 -2 -55 9
-115 26 l-110 30 -310 2 c-246 2 -326 6 -390 19 -95 20 -114 21 -62 2 93 -34
253 -48 477 -41 208 7 337 1 309 -14 -8 -4 -37 -10 -65 -13 -79 -9 -192 -50
-379 -139 -203 -96 -305 -135 -404 -154 -95 -18 -105 -28 -21 -22 90 7 215 52
426 151 205 97 300 132 402 147 123 20 128 11 22 -43 -127 -65 -235 -137 -370
-246 -62 -49 -129 -95 -149 -102 -45 -14 -62 -29 -34 -29 35 0 118 52 220 136
120 99 211 159 351 230 116 58 118 59 176 43 42 -12 39 -19 -14 -39 -137 -51
-171 -144 -112 -307 16 -43 32 -91 36 -108 7 -28 7 -29 -12 -12 -35 31 -62 17
-62 -33 0 -23 -20 -70 -30 -70 -4 0 -10 9 -13 20 -9 33 -29 23 -108 -54 -41
-40 -89 -81 -107 -90 l-33 -17 8 28 c4 15 8 51 8 78 0 44 -3 50 -20 49 -11 -1
-28 -5 -37 -9 -13 -5 -18 -3 -18 8 0 8 12 17 28 20 45 9 107 61 186 158 42 50
76 95 76 100 0 20 -32 -7 -94 -80 -68 -80 -98 -106 -153 -134 -73 -38 -85 -5
-22 59 32 33 40 47 34 61 -8 16 -9 16 -12 -4 -2 -12 -25 -38 -50 -59 -41 -33
-45 -40 -40 -70 5 -32 2 -37 -66 -92 -97 -78 -102 -81 -82 -43 20 39 31 126
18 134 -6 4 -41 -9 -79 -29 -38 -19 -88 -38 -111 -41 l-42 -6 11 31 c7 17 9
34 5 38 -4 4 -30 7 -58 5 -53 -2 -119 14 -119 29 0 5 9 14 20 20 23 12 27 45
5 53 -8 4 -54 15 -102 27 -48 11 -106 25 -128 31 l-39 11 49 24 c28 13 80 49
116 81 37 32 76 66 88 75 11 10 21 22 21 28 0 15 -42 29 -106 36 l-55 7 28 29
c27 29 27 30 9 44 -11 8 -39 14 -63 14 -24 0 -72 7 -106 16 -66 16 -189 74
-194 90 -2 6 46 23 107 38 60 16 115 35 122 43 14 17 6 25 -77 76 -25 16 -45
32 -45 37 0 4 21 13 46 19 60 15 56 35 -17 77 -57 34 -159 119 -159 134 0 5
30 12 68 15 78 9 92 17 92 57 0 39 -39 76 -90 84 -37 6 -39 8 -25 24 23 26 18
49 -20 91 -19 22 -35 44 -35 49 0 6 16 10 35 10 20 0 38 6 41 13 2 7 -13 45
-36 83 -22 38 -40 71 -40 74 0 11 206 -18 256 -35 66 -24 89 -16 81 28 -4 17
-9 42 -13 55 -6 21 -5 22 20 11 39 -18 55 0 37 44 -43 105 -77 266 -53 255 73
-33 154 -83 169 -104 14 -19 25 -25 38 -20 18 6 18 30 -1 95 -8 26 -11 26 56
5 29 -9 36 21 16 63 -9 19 -39 58 -66 88 -41 43 -46 52 -28 48 13 -2 31 2 42
10 17 13 17 15 2 45 -22 42 -21 45 15 37 41 -9 51 8 31 54 -22 50 -31 308 -11
295 8 -4 51 -34 96 -66z m1078 -123 c19 -41 40 -75 47 -75 6 0 22 9 34 21 29
27 44 17 44 -27 0 -51 15 -74 50 -74 l29 0 -15 -35 c-19 -47 -18 -78 7 -109
31 -39 59 -33 114 25 26 28 50 47 53 44 9 -9 7 -143 -2 -180 -4 -16 -9 -41
-12 -54 -4 -21 -12 -16 -92 61 -86 82 -170 148 -191 148 -6 0 -22 -17 -35 -38
-25 -39 -80 -92 -97 -92 -5 0 -9 6 -9 13 0 7 -21 48 -46 91 l-47 78 15 53 c12
44 106 225 116 225 2 0 19 -34 37 -75z m1644 -1276 c35 -29 85 -23 165 17 39
20 80 43 91 50 11 8 22 14 25 14 3 0 3 -38 0 -84 -5 -78 -8 -88 -45 -140 -70
-99 -85 -129 -85 -174 0 -57 24 -96 71 -118 78 -35 172 0 229 84 l29 44 30
-54 c16 -29 36 -65 45 -80 9 -18 23 -28 37 -28 12 0 73 32 136 70 63 39 116
70 118 70 2 0 5 -21 7 -46 5 -71 28 -79 73 -27 20 23 48 44 64 48 37 8 75 49
101 109 l21 50 35 -35 c28 -28 36 -47 46 -99 13 -77 48 -120 97 -120 l31 0 0
-68 c0 -37 -4 -81 -9 -99 -12 -42 5 -57 55 -47 l37 7 -7 -59 c-3 -32 -16 -98
-28 -146 -11 -47 -18 -93 -15 -101 3 -8 26 -17 57 -21 28 -4 61 -11 74 -16
l24 -9 -39 -41 c-22 -23 -53 -69 -70 -103 -17 -34 -42 -77 -56 -95 -33 -43
-23 -53 68 -68 39 -7 73 -14 75 -17 3 -2 -3 -23 -12 -46 -23 -58 -13 -65 66
-51 35 6 86 8 114 5 47 -6 168 -33 174 -39 1 -2 -19 -39 -44 -82 -53 -88 -95
-139 -136 -160 -39 -20 -37 -53 2 -61 l31 -6 -23 -25 c-13 -13 -42 -33 -65
-44 -50 -22 -55 -43 -16 -74 l26 -21 -97 -38 c-106 -42 -125 -57 -106 -80 6
-8 9 -19 5 -24 -8 -13 -72 -31 -112 -31 -22 0 -33 -6 -38 -19 -5 -16 -19 -19
-101 -23 -52 -3 -100 -10 -106 -16 -11 -11 -6 -46 17 -117 5 -17 -4 -25 -60
-53 -75 -37 -142 -42 -235 -17 -46 12 -57 12 -68 1 -12 -11 -10 -20 8 -56 l22
-43 -24 7 c-64 18 -78 18 -84 2 -3 -9 3 -55 15 -102 12 -47 24 -111 27 -142
l6 -57 -49 3 c-39 3 -61 -2 -99 -22 -44 -23 -53 -24 -87 -14 -48 15 -56 4 -49
-60 l5 -45 -46 33 c-25 18 -52 30 -60 27 -8 -3 -27 -31 -41 -62 -21 -47 -29
-55 -40 -46 -18 15 -52 96 -61 144 -9 46 -32 58 -55 30 -15 -19 -16 -15 -12
66 6 129 -36 266 -108 353 l-27 32 41 27 c22 15 45 24 51 20 83 -61 99 -78
140 -161 61 -122 144 -260 155 -260 16 0 13 6 -40 96 -49 82 -110 198 -110
208 0 15 323 -215 367 -260 58 -60 70 -67 49 -26 -24 46 -104 114 -253 217
-136 93 -165 116 -125 100 9 -3 71 -17 138 -31 126 -25 198 -46 221 -66 7 -6
17 -8 21 -4 21 21 -95 67 -253 100 -63 14 -135 34 -162 46 -26 12 -57 23 -67
26 -11 2 -29 13 -42 25 l-23 22 23 31 c51 67 86 169 86 246 0 43 25 39 139
-19 159 -81 422 -197 510 -225 105 -33 221 -46 221 -24 0 11 -16 17 -62 22
-34 4 -98 19 -142 33 -63 20 -344 138 -531 223 l-20 9 20 0 c348 13 624 79
935 226 224 106 290 122 378 91 54 -19 64 -3 12 18 -55 22 -158 20 -228 -3
-31 -11 -125 -51 -209 -90 -84 -38 -202 -86 -262 -105 -117 -38 -373 -90 -417
-84 -26 3 -25 4 20 37 26 18 91 71 144 118 129 113 234 182 420 274 85 42 150
79 144 83 -13 8 -237 -98 -347 -164 -83 -50 -159 -109 -286 -221 -35 -31 -91
-75 -123 -98 l-59 -41 -129 0 c-95 0 -129 3 -132 13 -1 6 -15 48 -29 92 l-27
80 63 60 c35 33 125 101 201 152 131 87 142 93 244 117 59 13 170 30 246 36
144 11 234 34 291 73 54 37 136 109 152 134 31 47 2 35 -59 -24 -122 -116
-171 -137 -373 -159 -130 -14 -278 -38 -314 -52 -9 -3 25 28 74 69 283 238
452 514 472 773 7 93 -11 101 -20 9 -19 -177 -130 -395 -302 -589 -77 -88
-289 -269 -293 -251 -3 14 26 97 121 347 31 80 65 191 76 247 22 106 28 257
11 283 -7 10 -10 -11 -10 -68 0 -124 -32 -259 -116 -496 -41 -116 -84 -242
-95 -280 -10 -38 -22 -72 -27 -75 -106 -73 -268 -198 -305 -236 l-49 -50 -67
66 c-50 49 -82 72 -126 88 -108 41 -248 28 -354 -32 -31 -17 -26 -10 31 48 57
59 69 67 82 56 12 -10 48 -12 138 -9 144 5 199 24 284 101 29 26 55 47 58 47
19 0 -1 -43 -54 -116 -64 -88 -77 -134 -40 -134 23 0 218 126 268 174 65 60
109 161 201 455 44 144 54 187 36 170 -2 -3 -40 -104 -84 -224 -100 -277 -112
-304 -152 -350 -43 -49 -226 -195 -244 -195 -31 0 -23 24 40 111 62 87 77 127
49 136 -6 2 -37 -17 -70 -43 -103 -81 -151 -98 -287 -102 -66 -2 -123 0 -128
5 -13 13 231 312 335 411 171 161 318 252 407 252 30 0 49 4 49 11 0 23 -121
4 -186 -29 -78 -39 -239 -160 -326 -244 -38 -36 -68 -64 -68 -62 0 2 14 52 31
111 37 126 77 211 148 308 50 68 59 85 43 85 -12 0 -109 -134 -147 -203 -19
-34 -47 -111 -64 -172 -43 -161 -60 -193 -178 -344 -99 -127 -249 -288 -259
-279 -2 3 7 47 20 99 13 52 34 173 46 269 22 179 63 387 79 403 5 5 43 24 85
42 52 22 108 59 172 112 130 107 197 150 268 172 45 14 53 19 33 20 -39 1
-128 -32 -179 -67 -24 -16 -81 -62 -128 -101 -79 -67 -224 -150 -237 -137 -3
3 16 52 44 108 72 149 150 241 288 343 112 83 151 128 142 163 -3 13 -6 12
-14 -8 -15 -34 -54 -68 -143 -125 -207 -132 -355 -379 -415 -693 -15 -77 -15
-77 -10 108 5 181 22 385 49 565 13 87 13 106 -1 92 -9 -10 -40 -194 -57 -347
-29 -248 -36 -435 -25 -580 10 -121 9 -147 -9 -255 -26 -150 -64 -272 -79
-253 -38 48 -116 277 -158 463 -70 310 -107 404 -190 489 l-41 43 45 16 c32
11 50 13 63 6 14 -7 23 -7 33 1 26 22 27 67 4 140 -26 79 -23 87 35 97 41 6
90 45 100 79 3 11 0 34 -8 50 -19 38 -24 86 -10 91 6 2 41 -21 77 -52 42 -36
70 -53 80 -49 19 7 57 82 57 112 0 26 12 28 30 7 7 -8 18 -15 25 -15 23 0 83
80 101 132 18 56 31 53 36 -7 3 -39 4 -40 40 -38 53 3 145 53 201 109 26 26
47 52 48 58 0 6 6 -4 13 -23 6 -18 22 -42 35 -52z m-799 -254 c0 -20 -5 -25
-23 -25 -36 0 -40 12 -10 32 35 22 33 23 33 -7z m-118 -240 c6 -28 -5 -31 -48
-15 l-28 11 30 18 c34 22 40 20 46 -14z m-636 -64 c18 -11 60 -61 94 -111 74
-107 113 -141 174 -147 51 -6 67 9 40 38 -9 10 -15 20 -13 22 2 2 30 1 62 -1
55 -4 57 -5 57 -33 0 -18 -5 -29 -14 -29 -29 0 -36 -25 -16 -58 25 -41 25 -46
-2 -39 -12 3 -30 1 -41 -4 -13 -8 -22 -8 -30 0 -14 14 -72 14 -98 1 -31 -17
-48 -63 -64 -176 -15 -107 -33 -154 -59 -154 -36 0 -41 10 -38 68 4 79 -22
157 -106 309 -113 206 -128 282 -62 315 45 23 77 23 116 -1z m569 -162 c81
-86 108 -161 181 -494 26 -121 69 -250 118 -359 l27 -58 -47 40 c-53 48 -132
80 -214 89 -53 5 -60 8 -71 36 -17 41 -112 173 -161 224 -22 22 -37 46 -34 52
4 6 28 11 54 11 79 0 120 49 71 84 -23 15 -89 104 -89 118 0 4 16 8 35 8 45 0
54 20 26 59 -15 21 -18 32 -10 37 8 5 10 34 6 100 l-6 93 27 4 c15 2 30 5 33
6 4 0 28 -22 54 -50z m-275 -259 c14 -27 3 -45 -16 -29 -12 10 -18 9 -31 -4
-15 -14 -15 -18 1 -42 24 -37 63 -31 93 14 13 19 23 30 23 25 0 -5 18 -32 39
-60 l39 -52 -51 -5 c-51 -4 -87 -31 -87 -62 0 -7 30 -48 67 -92 61 -72 143
-188 143 -202 0 -8 -140 -86 -153 -86 -5 0 -17 27 -29 60 -33 98 -80 160 -177
232 -3 2 3 20 13 39 9 20 24 82 32 138 8 55 22 111 30 124 18 27 50 29 64 2z
m-205 -329 c98 -43 195 -171 211 -277 5 -38 3 -49 -14 -67 -36 -39 -74 -135
-80 -204 -4 -58 -8 -67 -37 -89 -52 -40 -135 -64 -217 -64 -40 0 -79 4 -86 9
-7 4 -24 31 -37 59 -13 28 -48 77 -78 110 -48 52 -56 66 -67 125 -7 38 -9 87
-5 116 8 58 50 152 90 199 15 18 25 36 21 39 -13 13 -68 -54 -103 -125 -32
-64 -37 -83 -37 -150 -1 -42 2 -91 6 -109 6 -27 5 -31 -8 -26 -24 9 -34 47
-34 127 0 91 20 161 64 218 92 120 276 169 411 109z m660 -283 c57 -30 124
-97 154 -155 17 -34 18 -46 9 -84 -11 -48 -4 -158 13 -206 8 -26 7 -38 -9 -70
-24 -47 -82 -108 -123 -129 -29 -15 -34 -14 -81 6 -72 31 -140 35 -220 15 -66
-16 -68 -16 -97 4 -37 27 -84 98 -113 170 -27 69 -29 193 -4 260 36 99 115
173 219 207 67 22 191 13 252 -18z m688 4 c227 -101 293 -447 115 -608 -21
-18 -43 -34 -50 -34 -6 0 -19 -7 -28 -15 -15 -13 -25 -10 -99 28 l-83 42 -119
0 -118 0 -26 40 c-37 57 -65 157 -65 229 0 162 103 297 257 336 59 14 162 6
216 -18z m-435 -52 c-23 -32 -28 -36 -28 -20 0 10 36 50 45 50 3 0 -4 -13 -17
-30z m-1397 -167 c40 -13 69 -32 110 -73 100 -99 126 -243 66 -373 -29 -63
-71 -100 -148 -130 -201 -79 -402 67 -403 293 0 145 78 250 214 286 63 17 99
17 161 -3z m624 -251 c20 -62 87 -166 121 -189 l24 -16 -46 -49 c-57 -61 -84
-121 -92 -206 -6 -59 -10 -67 -32 -73 -52 -14 -66 -10 -83 26 -21 44 -89 118
-135 147 -20 13 -61 32 -91 43 -51 19 -56 24 -59 53 -2 18 3 54 12 80 8 26 17
65 21 86 12 72 25 82 116 89 65 4 94 12 148 39 36 18 69 31 72 28 4 -3 14 -29
24 -58z m756 -104 c25 -31 24 -35 -19 -57 -22 -11 -60 -36 -87 -56 -35 -28
-50 -34 -59 -25 -8 8 -6 14 7 21 34 20 86 70 107 105 12 19 24 34 27 34 3 0
13 -10 24 -22z m1857 -64 c34 -3 62 -10 62 -15 0 -4 -16 -20 -35 -35 -19 -14
-35 -32 -35 -39 0 -7 20 -25 43 -38 42 -25 117 -99 117 -115 0 -5 -11 -14 -24
-20 -14 -6 -32 -22 -41 -36 -15 -22 -15 -27 -1 -54 8 -16 45 -56 81 -87 36
-32 65 -61 65 -65 0 -4 -49 -17 -109 -28 -81 -16 -118 -19 -143 -12 -49 15
-57 13 -64 -16 -5 -20 0 -32 26 -59 17 -18 47 -41 66 -51 41 -22 43 -34 7 -34
-44 -1 -113 -36 -113 -58 0 -11 21 -50 46 -87 25 -36 44 -68 42 -70 -1 -2 -19
-7 -38 -12 -50 -13 -53 -46 -6 -68 20 -10 36 -20 36 -24 0 -4 -20 -12 -45 -19
-34 -9 -45 -17 -45 -31 0 -12 9 -22 23 -26 12 -4 45 -29 72 -55 62 -60 95 -76
168 -85 l58 -7 -53 -36 c-29 -20 -71 -39 -93 -42 -30 -4 -41 -10 -43 -25 -3
-14 -29 -32 -80 -58 -43 -21 -83 -37 -90 -37 -23 0 -24 -29 -2 -60 l21 -30
-24 0 c-14 0 -40 7 -60 15 -30 13 -42 13 -81 1 -25 -8 -55 -12 -66 -9 -31 8
-37 -24 -13 -69 l21 -38 -22 0 c-12 0 -37 16 -57 36 -37 39 -84 64 -122 64
-14 0 -36 9 -51 21 -37 29 -55 13 -49 -45 3 -24 1 -51 -4 -60 -8 -14 -13 -13
-43 9 -29 22 -36 23 -48 11 -12 -12 -12 -20 3 -60 13 -33 16 -60 11 -98 -3
-29 -9 -81 -12 -115 -4 -35 -10 -63 -14 -63 -12 0 -94 62 -108 82 -16 22 -59
23 -83 2 -17 -15 -20 -15 -46 4 -29 20 -44 44 -63 95 -12 34 -24 34 -52 2 -12
-14 -25 -25 -29 -25 -16 0 -60 76 -76 130 -8 30 -21 58 -27 62 -7 5 -9 31 -6
75 2 37 4 114 4 171 1 56 1 102 2 102 1 0 18 -26 39 -57 21 -32 68 -96 105
-143 84 -106 149 -203 192 -286 34 -67 55 -84 44 -36 -14 56 -75 170 -134 247
-34 44 -91 118 -127 165 -71 93 -126 189 -156 277 -31 90 -25 102 21 44 22
-28 82 -82 132 -121 213 -162 241 -186 278 -232 21 -27 41 -54 43 -61 2 -7 8
-9 12 -5 23 22 -97 150 -235 251 -205 151 -265 220 -299 342 l-19 69 27 32 28
32 46 -83 c57 -101 129 -198 168 -226 17 -12 48 -50 70 -84 62 -99 137 -160
290 -240 108 -56 147 -82 202 -136 74 -74 89 -69 28 9 -42 53 -112 101 -261
178 -72 37 -113 66 -168 122 -41 40 -72 76 -69 78 2 3 20 -4 38 -15 54 -32
235 -88 339 -105 52 -9 176 -23 275 -31 99 -8 199 -18 223 -21 25 -4 42 -2 42
4 0 16 -86 33 -255 48 -385 35 -594 100 -734 230 -34 31 -61 59 -61 63 0 4 33
1 73 -6 39 -7 135 -14 212 -14 170 -2 220 -15 386 -101 117 -60 199 -83 213
-59 5 7 -6 11 -33 11 -30 0 -69 15 -149 56 -59 31 -134 67 -166 79 l-60 23 52
11 c146 31 193 34 300 22 58 -7 108 -13 111 -14 3 -1 8 3 10 8 13 33 -240 48
-369 22 -41 -9 -76 -15 -77 -14 -4 4 217 174 274 211 35 22 61 41 59 43 -10
11 -132 -63 -226 -137 -142 -111 -172 -128 -251 -136 -64 -6 -310 10 -364 24
-19 6 -43 34 -91 107 -63 99 -63 100 -38 103 15 2 32 15 44 34 l18 30 20 -45
c27 -62 99 -139 119 -128 8 4 27 35 42 69 l27 60 54 -34 c30 -19 64 -33 75
-32 18 3 20 9 17 61 -3 55 -2 57 21 57 14 0 49 11 78 25 56 25 84 25 127 -3
18 -12 25 -12 38 -1 14 11 15 27 9 100 l-6 87 43 -9 c24 -4 66 -8 95 -9 39 0
74 -10 148 -45 53 -24 109 -53 124 -65 16 -11 35 -20 43 -20 24 0 -46 50 -127
90 l-80 39 75 1 c89 0 235 -21 340 -49 85 -23 98 -25 85 -12 -16 15 -196 69
-266 80 -35 5 -149 13 -254 16 -104 3 -200 8 -212 11 -15 4 -24 18 -32 49 -6
24 -11 46 -11 48 0 2 23 -2 52 -9 44 -12 54 -12 66 0 12 11 11 19 -6 53 l-20
39 91 0 c86 0 97 2 167 37 41 20 83 37 93 37 29 0 31 27 4 62 -14 18 -28 44
-32 57 -8 26 -18 26 183 5z m-1522 -25 c62 -24 153 -102 189 -163 135 -231 67
-508 -151 -611 l-54 -25 -42 30 c-66 48 -135 64 -251 57 l-98 -5 -45 60 c-24
33 -44 64 -44 68 0 4 7 14 16 21 31 25 64 89 80 151 20 77 12 158 -23 246
l-25 64 28 30 c91 95 279 130 420 77z m-644 -25 c106 -36 186 -152 196 -283 6
-89 -17 -159 -71 -219 -58 -62 -107 -84 -197 -90 -98 -6 -162 20 -225 90 -64
71 -88 143 -83 243 5 97 28 145 94 204 76 67 189 89 286 55z m-1413 -64 c18
-22 57 -57 89 -78 31 -20 64 -51 74 -68 18 -31 18 -32 -6 -78 -63 -119 -60
-255 8 -417 6 -13 -1 -18 -31 -24 -21 -3 -58 -15 -82 -26 -67 -30 -123 -24
-114 12 3 10 1 19 -5 19 -19 0 -122 111 -146 158 -56 111 -53 229 8 359 37 77
34 95 -8 40 -118 -155 -92 -397 58 -534 34 -32 48 -49 35 -46 -40 11 -138 113
-169 176 -84 174 -42 383 96 478 37 25 131 67 155 69 3 0 20 -18 38 -40z m645
-98 c25 -12 67 -41 94 -66 56 -52 113 -159 94 -178 -8 -8 -13 -4 -18 18 -3 16
-17 48 -30 70 -41 72 -210 169 -261 150 -23 -9 -7 -23 34 -31 97 -18 215 -118
228 -194 6 -38 4 -45 -29 -81 -72 -80 -115 -210 -101 -311 l7 -48 -58 -17
c-82 -24 -167 -14 -245 28 -115 60 -181 175 -187 323 -3 74 0 100 17 146 37
97 116 170 224 205 57 19 172 11 231 -14z m365 -287 c28 -63 104 -140 170
-172 43 -22 72 -28 131 -30 72 -2 75 -3 83 -30 4 -15 8 -62 8 -103 1 -80 -23
-161 -61 -210 l-19 -25 -48 46 c-67 65 -123 91 -209 97 -88 6 -162 -14 -235
-63 -59 -40 -56 -42 -91 45 -17 43 -22 76 -22 150 0 84 3 102 27 151 15 31 48
76 73 99 42 38 133 90 161 90 7 0 21 -20 32 -45z m526 -175 c8 -16 29 -45 46
-64 l30 -35 -32 -17 c-18 -9 -53 -35 -78 -59 l-46 -43 0 56 c0 32 -4 80 -8
107 l-8 50 38 17 c21 9 39 17 40 17 1 1 9 -12 18 -29z m391 -144 c180 -83 262
-332 170 -515 -57 -112 -156 -173 -293 -179 -71 -4 -88 -1 -142 23 -162 73
-258 287 -206 461 37 125 135 210 275 237 49 10 144 -3 196 -27z m310 -107 c8
-57 29 -146 45 -197 32 -102 39 -196 27 -371 -6 -87 -8 -97 -32 -114 l-25 -18
-7 27 c-4 15 -1 48 6 73 19 67 24 118 11 126 -6 3 -36 9 -66 12 -30 3 -55 7
-55 8 0 1 10 24 21 51 15 32 23 77 27 135 5 101 -17 192 -68 272 -16 26 -30
50 -30 52 0 3 22 16 49 30 27 13 53 30 57 36 12 20 23 -13 40 -122z m-1971 47
c30 -25 81 -54 114 -66 68 -25 85 -47 43 -56 -146 -32 -243 -117 -274 -239 -6
-27 -15 -54 -19 -58 -4 -5 -25 8 -48 28 -31 28 -41 33 -41 20 0 -20 53 -75 73
-75 14 0 33 -68 22 -78 -9 -10 -99 32 -132 61 -19 17 -46 53 -61 81 -24 45
-27 62 -27 146 0 79 4 102 22 136 44 82 139 142 231 143 36 1 51 -6 97 -43z
m444 -135 c41 -85 34 -104 -21 -56 -39 33 -90 57 -150 69 -40 9 -35 24 10 31
20 3 51 10 67 14 54 16 59 13 94 -58z m431 17 c49 -16 134 -100 161 -161 35
-76 34 -212 -1 -280 -50 -98 -140 -151 -260 -151 -66 -1 -82 3 -130 30 -105
59 -165 173 -158 304 4 86 25 137 78 190 79 79 193 104 310 68z m-540 -82 c19
-10 49 -32 66 -48 l31 -29 -3 -101 -3 -102 -33 -16 c-18 -9 -44 -24 -58 -33
-24 -16 -29 -16 -78 3 -70 27 -202 27 -271 1 l-49 -18 -6 21 c-33 124 45 277
167 326 65 25 183 23 237 -4z m790 -16 c0 -14 -7 -20 -22 -20 -20 0 -21 1 -3
20 10 11 20 20 22 20 1 0 3 -9 3 -20z m7 -129 c23 -123 104 -242 202 -298 25
-15 47 -27 49 -28 1 -1 -3 -15 -8 -31 -10 -29 -11 -30 -78 -26 -48 3 -83 -1
-126 -16 l-58 -20 -19 42 c-25 54 -24 103 3 162 23 53 30 165 15 237 -4 20 -4
37 0 37 5 0 14 -27 20 -59z m-661 -233 c29 -65 112 -142 181 -168 49 -19 72
-21 151 -17 93 4 94 4 104 -22 5 -14 10 -64 11 -111 1 -92 -18 -150 -69 -217
-45 -59 -57 -41 -22 34 25 53 33 84 36 149 3 49 0 89 -7 100 -9 16 -10 11 -11
-27 0 -74 -20 -159 -50 -219 -30 -58 -64 -100 -81 -100 -6 0 -24 -9 -40 -21
l-30 -21 -50 47 c-68 64 -126 88 -225 93 l-81 4 -20 42 c-64 132 -50 298 35
396 36 43 115 100 137 100 7 0 21 -19 31 -42z m-240 2 l32 -11 -34 -56 c-18
-30 -38 -79 -45 -108 -18 -80 -7 -208 23 -282 l25 -62 -44 -22 c-24 -12 -64
-45 -89 -74 -41 -47 -49 -52 -73 -45 -91 26 -169 93 -210 180 -20 43 -26 74
-29 142 -5 103 10 156 62 227 77 104 254 156 382 111z m833 -145 l20 -60 -22
-17 c-27 -21 -41 -11 -60 46 -15 42 -14 44 11 69 14 15 27 25 28 24 1 -1 11
-29 23 -62z m-59 -101 c10 -11 9 -20 -6 -41 l-18 -28 -12 70 c-6 39 -13 75
-14 80 -8 33 4 23 20 -18 10 -27 24 -55 30 -63z m395 12 c174 -82 232 -341
108 -485 -52 -61 -139 -101 -219 -101 -89 0 -116 12 -137 64 -19 46 -59 93
-122 142 l-40 31 1 84 c0 66 5 93 22 125 34 67 69 101 134 133 81 41 177 43
253 7z m-462 -313 c5 -27 3 -33 -12 -33 -28 0 -32 11 -14 41 9 16 18 27 19 26
0 -1 4 -17 7 -34z m-458 -37 c28 -13 65 -39 83 -58 l32 -34 -32 -62 c-42 -83
-51 -197 -20 -284 l20 -56 -20 -22 c-37 -39 -117 -70 -184 -70 -117 0 -210 54
-262 154 -24 46 -27 62 -27 151 0 110 13 148 77 220 53 61 108 83 213 84 54 1
81 -5 120 -23z m490 -64 c62 -31 96 -66 127 -130 29 -58 33 -76 32 -137 -1
-39 -9 -86 -18 -107 -74 -172 -315 -221 -448 -91 -103 100 -110 300 -15 401
76 81 229 112 322 64z"/>
<g>
<path d="M5373 8213 c9 -2 23 -2 30 0 6 3 -1 5 -18 5 -16 0 -22 -2 -12 -5z"/>
</g>
<g>
<path d="M3255 6740 c3 -5 27 -24 53 -41 147 -100 339 -275 436 -399 l50 -63
-43 7 c-82 13 -172 74 -353 238 -62 57 -138 123 -169 146 -63 48 -183 112
-207 112 -9 0 15 -17 54 -38 89 -48 127 -78 289 -230 145 -137 255 -218 330
-244 54 -19 120 -23 129 -9 8 13 -171 218 -269 307 -139 127 -331 264 -300
214z"/>
</g>
<g>
<path d="M5005 6128 c-28 -129 -159 -255 -286 -274 -55 -8 -89 -29 -89 -54 0
-10 22 -37 50 -61 28 -23 50 -46 50 -51 0 -15 -95 -8 -135 11 -22 10 -64 35
-94 55 -53 36 -112 48 -126 26 -4 -6 9 -10 32 -10 30 0 53 -11 106 -49 97 -71
196 -89 253 -46 18 14 18 15 -16 42 -111 88 -111 93 -14 119 132 34 234 128
277 258 19 57 21 66 8 66 -5 0 -13 -15 -16 -32z"/>
</g>
<g>
<path d="M3520 5265 c-13 -14 -51 -34 -84 -44 -38 -12 -51 -19 -36 -20 34 -1
100 31 129 63 14 14 22 26 19 26 -2 0 -15 -11 -28 -25z"/>
</g>
<g>
<path d="M4430 4871 c0 -5 24 -23 53 -39 81 -46 134 -114 166 -215 15 -44 33
-40 24 6 -17 89 -79 175 -162 229 -44 28 -81 36 -81 19z"/>
</g>
<g>
<path d="M4538 4725 c-7 -7 63 -114 75 -115 4 0 0 17 -8 38 -17 40 -57 86 -67
77z"/>
</g>
<g>
<path d="M4952 4607 c-46 -48 -14 -115 65 -136 21 -6 61 -25 88 -42 96 -61
135 -60 135 3 0 35 -14 63 -48 101 -42 44 -58 32 -19 -14 20 -22 38 -52 42
-66 11 -47 -10 -48 -82 -6 -37 22 -89 47 -116 57 -58 22 -72 54 -38 90 11 12
21 25 21 29 0 15 -28 6 -48 -16z"/>
</g>
<g>
<path d="M4701 4406 c-24 -96 -6 -194 50 -279 30 -46 72 -77 104 -77 27 0 16
25 -20 44 -71 38 -118 149 -114 271 1 41 0 78 -3 81 -3 2 -11 -15 -17 -40z"/>
</g>
<g>
<path d="M4800 4198 c0 -21 52 -91 83 -111 32 -21 47 -22 47 -2 0 8 -4 15 -10
15 -5 0 -34 25 -65 56 -30 31 -55 50 -55 42z"/>
</g>
<g>
<path d="M5754 4572 c-6 -4 -16 -17 -23 -29 -14 -28 -1 -63 43 -118 45 -55 74
-115 81 -167 11 -77 15 -87 41 -104 83 -55 137 116 83 263 -22 58 -98 153 -99
122 0 -9 6 -22 14 -28 7 -6 26 -39 42 -74 24 -52 29 -75 29 -144 0 -71 -3 -85
-21 -103 -20 -20 -22 -20 -38 -5 -9 9 -16 33 -16 53 0 48 -36 122 -94 196 -51
65 -61 110 -26 121 11 3 20 11 20 16 0 11 -20 12 -36 1z"/>
</g>
<g>
<path d="M5472 4536 c-16 -19 -36 -52 -43 -73 -20 -57 -18 -189 4 -244 21 -56
59 -94 83 -85 15 6 14 10 -9 34 -44 45 -60 98 -59 189 1 86 22 154 55 182 10
7 17 17 17 22 0 18 -19 8 -48 -25z"/>
</g>
<g>
<path d="M3906 4314 c-10 -26 15 -65 64 -99 25 -17 59 -50 75 -73 76 -105 141
-29 80 94 -13 27 -38 57 -54 67 -45 27 -48 20 -9 -20 42 -43 58 -79 58 -129 0
-45 -14 -43 -46 6 -15 22 -51 56 -80 75 -30 20 -55 41 -55 48 -1 7 -2 18 -3
26 -2 21 -23 25 -30 5z"/>
</g>
<g>
<path d="M3666 4198 c-34 -129 71 -327 176 -332 17 0 33 5 35 12 3 7 -4 12
-17 12 -85 0 -169 127 -172 259 -1 71 -10 91 -22 49z"/>
</g>
<g>
<path d="M3796 3972 c-14 -22 71 -79 101 -68 23 9 14 23 -19 30 -18 3 -42 16
-54 27 -12 11 -24 16 -28 11z"/>
</g>
<g>
<path d="M4302 4096 c-22 -48 -24 -94 -8 -150 16 -53 31 -75 44 -62 3 4 -2 28
-11 54 -19 53 -22 101 -8 150 11 37 -1 43 -17 8z"/>
</g>
<g>
<path d="M4358 3988 c-8 -19 7 -87 21 -101 21 -21 22 1 3 59 -12 36 -21 52
-24 42z"/>
</g>
<g>
<path d="M5692 3940 c2 -5 30 -31 63 -57 93 -75 145 -204 145 -357 0 -71 15
-88 26 -30 10 54 -2 161 -27 232 -29 84 -74 149 -133 189 -47 32 -81 43 -74
23z"/>
</g>
<g>
<path d="M5326 3902 c-4 -6 -2 -13 4 -17 6 -3 20 -25 32 -48 35 -67 31 -179
-10 -280 -38 -94 -41 -154 -11 -203 30 -48 53 -46 28 3 -27 53 -24 88 16 192
40 103 46 185 20 263 -17 48 -68 107 -79 90z"/>
</g>
<g>
<path d="M5730 3836 c0 -3 15 -27 33 -53 19 -27 37 -57 42 -68 5 -13 9 -16 12
-7 8 20 -50 127 -69 130 -10 2 -18 1 -18 -2z"/>
</g>
<g>
<path d="M5080 3884 c0 -3 20 -28 44 -55 73 -81 94 -182 60 -282 -32 -95 -89
-96 -78 -2 6 50 -9 125 -24 125 -14 0 -7 -197 7 -214 22 -26 56 -19 89 19 37
41 52 90 52 166 0 82 -25 145 -81 201 -43 43 -69 59 -69 42z"/>
</g>
<g>
<path d="M4786 3848 c-41 -54 -59 -108 -59 -174 -1 -70 27 -154 50 -154 8 0
12 6 9 13 -45 108 -44 188 4 281 35 68 33 82 -4 34z"/>
</g>
<g>
<path d="M3515 3371 c-15 -25 62 -121 97 -121 28 0 20 23 -15 45 -17 11 -41
35 -53 53 -12 18 -25 28 -29 23z"/>
</g>
<g>
<path d="M4220 3701 c0 -5 24 -23 54 -39 29 -17 65 -46 80 -64 18 -23 26 -28
26 -16 0 25 -57 86 -101 109 -42 21 -59 24 -59 10z"/>
</g>
<g>
<path d="M3881 3556 c-46 -130 59 -338 204 -407 67 -32 165 -41 165 -15 0 9
-18 15 -54 19 -116 12 -204 78 -259 195 -26 55 -33 84 -37 157 l-5 90 -14 -39z"/>
</g>
<g>
<path d="M4082 3238 c8 -23 53 -48 92 -51 55 -3 57 19 3 27 -24 4 -53 13 -63
21 -23 18 -37 19 -32 3z"/>
</g>
<g>
<path d="M4532 3461 c-79 -58 -132 -165 -132 -267 0 -65 17 -139 35 -154 22
-18 25 4 9 56 -36 115 2 251 96 338 28 26 50 49 50 51 0 11 -20 3 -58 -24z"/>
</g>
<g>
<path d="M5463 3138 c-46 -23 -36 -68 26 -118 41 -33 63 -75 75 -143 7 -37 52
-99 87 -117 68 -37 104 100 55 206 -22 48 -42 72 -51 62 -2 -2 7 -28 20 -57
28 -60 33 -136 11 -167 -14 -18 -15 -18 -45 11 -18 16 -36 47 -42 70 -6 22
-16 54 -21 72 -5 18 -32 54 -59 80 -27 26 -49 52 -49 59 0 7 15 14 33 16 20 2
32 8 32 18 0 18 -42 23 -72 8z"/>
</g>
<g>
<path d="M5170 3014 c-53 -138 -18 -287 91 -389 42 -39 79 -58 79 -39 0 3 -27
32 -60 64 -35 34 -69 78 -82 106 -26 59 -35 167 -19 230 14 53 7 71 -9 28z"/>
</g>
<g>
<path d="M5280 2709 c0 -6 17 -29 39 -50 21 -22 44 -39 50 -39 19 0 12 28 -9
35 -10 3 -30 19 -44 36 -26 31 -36 36 -36 18z"/>
</g>
<g>
<path d="M3661 3055 c-44 -70 -54 -108 -49 -189 6 -85 34 -149 89 -206 70 -72
83 -45 15 31 -59 65 -80 129 -74 223 4 51 13 86 32 124 35 69 26 79 -13 17z"/>
</g>
<g>
<path d="M4680 2970 c-11 -11 -20 -25 -20 -31 0 -6 25 -37 56 -70 31 -32 71
-87 88 -121 25 -51 36 -64 57 -66 31 -4 69 37 69 74 0 33 -29 101 -46 108 -18
7 -17 -2 1 -34 19 -33 19 -94 0 -110 -20 -17 -33 -6 -59 53 -13 29 -47 74 -75
102 -28 27 -51 55 -51 62 0 8 11 18 25 23 14 5 25 14 25 20 0 18 -49 11 -70
-10z"/>
</g>
<g>
<path d="M4464 2849 c-27 -54 -30 -144 -5 -210 30 -79 121 -174 121 -126 0 8
-12 24 -26 38 -69 65 -100 176 -75 275 15 57 8 67 -15 23z"/>
</g>
<g>
<path d="M4545 2623 c14 -57 85 -127 107 -105 6 6 -2 19 -25 36 -18 14 -42 42
-53 61 -22 42 -39 46 -29 8z"/>
</g>
<g>
<path d="M3945 2845 c-47 -49 -71 -116 -59 -163 6 -24 16 -38 28 -40 16 -4 18
0 10 25 -16 55 -7 95 36 155 45 64 36 78 -15 23z"/>
</g>
<g>
<path d="M3965 2726 c-18 -28 -17 -87 3 -94 8 -2 12 9 12 38 0 23 5 50 10 61
16 28 -6 24 -25 -5z"/>
</g>
<g>
<path d="M4322 2530 c-72 -44 -120 -169 -108 -282 9 -79 34 -158 52 -165 23
-9 26 1 10 32 -22 42 -39 161 -31 219 9 71 35 124 86 174 46 45 43 54 -9 22z"/>
</g>
<g>
<path d="M4287 2213 c-19 -19 13 -113 39 -113 17 0 18 22 3 37 -6 6 -16 27
-23 47 -7 20 -16 33 -19 29z"/>
</g>
<g>
<path d="M4682 2088 c-7 -20 -24 -54 -38 -74 -26 -38 -26 -51 1 -40 22 8 57
91 53 124 -3 26 -4 26 -16 -10z"/>
</g>
<g>
<path d="M3822 2440 c-89 -113 -93 -274 -10 -395 42 -59 110 -110 135 -100 16
6 15 9 -12 28 -53 39 -101 93 -125 143 -33 69 -34 187 -1 261 13 29 29 58 37
64 15 12 19 29 7 28 -5 0 -18 -13 -31 -29z"/>
</g>
<g>
<path d="M3900 2069 c0 -14 55 -69 69 -69 20 0 11 20 -21 50 -35 31 -48 37
-48 19z"/>
</g>
<g>
<path d="M5015 2216 c-13 -13 -28 -41 -34 -62 -14 -50 -14 -149 -1 -175 21
-39 29 -18 24 59 -6 81 9 147 43 184 25 27 -4 22 -32 -6z"/>
</g>
<g>
<path d="M5340 2210 c0 -5 5 -10 11 -10 5 0 22 -25 36 -57 34 -73 35 -164 4
-242 -14 -34 -18 -58 -12 -64 20 -20 71 103 71 173 0 47 -31 144 -56 177 -24
31 -54 44 -54 23z"/>
</g>
<g>
<path d="M5036 2064 c-10 -27 -7 -69 8 -90 20 -27 31 -10 16 25 -7 17 -9 42
-6 56 7 27 -8 35 -18 9z"/>
</g>
<g>
<path d="M4103 1867 c-50 -54 -67 -113 -61 -214 6 -103 53 -193 100 -193 24 0
23 13 -3 36 -38 34 -62 95 -67 172 -6 87 13 146 66 204 22 25 29 38 19 38 -8
0 -32 -19 -54 -43z"/>
</g>
<g>
<path d="M4130 1595 c0 -50 62 -127 84 -105 6 6 -4 24 -27 50 -21 22 -37 47
-37 55 0 8 -4 15 -10 15 -5 0 -10 -7 -10 -15z"/>
</g>
<g>
<path d="M4240 1545 c0 -16 40 -46 52 -39 14 9 9 19 -22 36 -24 14 -30 14 -30
3z"/>
</g>
<g>
<path d="M4930 1829 c0 -2 14 -31 30 -63 36 -71 41 -150 12 -186 -18 -22 -18
-22 -69 81 -29 57 -56 115 -61 129 -8 21 -11 22 -17 8 -7 -17 84 -230 110
-257 19 -19 53 -5 71 32 22 41 15 152 -12 198 -16 26 -64 70 -64 58z"/>
</g>
<g>
<path d="M4588 1783 c-52 -58 -49 -211 5 -271 32 -34 44 -10 16 30 -21 28 -24
45 -24 113 0 57 5 89 18 113 19 34 10 43 -15 15z"/>
</g>
<g>
<path d="M4620 1559 c0 -19 41 -69 56 -69 20 0 18 6 -12 46 -26 34 -44 43 -44
23z"/>
</g>
</g>
</g>
</svg>
