<?xml version="1.0" encoding="utf-8"?>
<!-- Generator: Adobe Illustrator 27.0.0, SVG Export Plug-In . SVG Version: 6.00 Build 0)  -->
<svg version="1.1" id="Outline" xmlns="http://www.w3.org/2000/svg" xmlns:xlink="http://www.w3.org/1999/xlink" x="0px" y="0px"
	 viewBox="0 0 512 512" style="enable-background:new 0 0 512 512;" xml:space="preserve">
<style type="text/css">
	.st0{fill:#FFE4C4;}
</style>
<path class="st0" d="M487.5,24.5c-30.2-30.2-79.1-30.2-109.3,0l-347,347c-20.1,20-31.3,47.1-31.3,75.4v43.8
	C0,502.4,9.6,512,21.3,512h43.8c28.3,0.1,55.5-11.2,75.4-31.2l347-347C517.7,103.6,517.7,54.7,487.5,24.5z M110.4,450.6
	c-12,12-28.3,18.7-45.2,18.7H42.7v-22.5c0-17,6.7-33.3,18.8-45.2l263.3-263.3l49.1,49.1L110.4,450.6z M457.3,103.6l-53.5,53.5
	l-49.1-49l53.5-53.5c13.5-13.5,35.5-13.5,49,0.1c13.5,13.5,13.5,35.5-0.1,49l0,0L457.3,103.6z"/>
</svg>
