<?xml version="1.0" encoding="utf-8"?>
<!-- Generator: Adobe Illustrator 27.0.0, SVG Export Plug-In . SVG Version: 6.00 Build 0)  -->
<svg version="1.1" id="Outline" xmlns="http://www.w3.org/2000/svg" xmlns:xlink="http://www.w3.org/1999/xlink" x="0px" y="0px"
	 viewBox="0 0 512 512" style="enable-background:new 0 0 512 512;" xml:space="preserve">
<style type="text/css">
	.st0{fill:#FFE4C4;}
</style>
<path class="st0" d="M398,19.8L137.9,279.9c-20.1,20-31.3,47.1-31.2,75.4V384c0,11.8,9.6,21.3,21.3,21.3h28.7
	c28.3,0.1,55.5-11.2,75.4-31.2L492.2,114c26-26,26-68.1,0-94.2C465.8-5.3,424.3-5.3,398,19.8z M462,83.8L201.9,343.9
	c-12,12-28.3,18.7-45.2,18.7h-7.3v-7.3c0-17,6.8-33.2,18.7-45.2L428.2,50c9.5-9,24.4-9,33.8,0C471.3,59.4,471.3,74.5,462,83.8z"/>
<path class="st0" d="M490.7,191.6c-11.8,0-21.3,9.6-21.3,21.3V320H384c-35.3,0-64,28.7-64,64v85.3H106.7c-35.3,0-64-28.7-64-64
	V106.7c0-35.3,28.7-64,64-64h192.9c11.8,0,21.3-9.6,21.3-21.3S311.3,0,299.6,0H106.7C47.8,0.1,0.1,47.8,0,106.7v298.7
	C0.1,464.2,47.8,511.9,106.7,512h242c28.3,0.1,55.5-11.2,75.4-31.2l56.7-56.7c20.1-20,31.3-47.1,31.3-75.4V212.9
	C512,201.1,502.4,191.6,490.7,191.6z M393.9,450.6c-8.6,8.6-19.4,14.5-31.3,17.1V384c0-11.8,9.6-21.3,21.3-21.3h83.7
	c-2.6,11.8-8.6,22.6-17.1,31.2L393.9,450.6z"/>
</svg>
